# xmcd
#
# Track frame offsets: 
#        150
#        19728
#        41613
#        60055
#        73478
#        109335
#        130468
#        149675
#        178665
#        195323
#        214835
#        236010
#
# Disc length: 3273 seconds
#
# Revision: 3
# Processed by: cddbd v1.5.2PL0 Copyright (c) Steve Scherf et al.
# Submitted via: ExactAudioCopy v0.99pb5
#
DISCID=b60cc70c
DTITLE=Ronnie Earl and the Broadcasters - Surrounded by Love
DYEAR=1900
DGENRE=Blues
TTITLE0=One of These Mornings
TTITLE1=AKOS
TTITLE2=Mr. Downchild
TTITLE3=Off the Hook
TTITLE4=That's When My Soul Comes Down
TTITLE5=Blind Love
TTITLE6=Improvisation on Annie's Boogie
TTITLE7=Jelly, Jelly
TTITLE8=Kathy's Theme
TTITLE9=Surrounded by Love
TTITLE10=Georgia
TTITLE11=Blues for Robert Junior
EXTD=
EXTT0=
EXTT1=
EXTT2=
EXTT3=
EXTT4=
EXTT5=
EXTT6=
EXTT7=
EXTT8=
EXTT9=
EXTT10=
EXTT11=
PLAYORDER=
